<svg width="24px" height="24px" viewBox="0 0 24 24" version="1.1" xmlns="http://www.w3.org/2000/svg" xmlns:xlink="http://www.w3.org/1999/xlink">
    <title>Comment</title>
    <g id="comment" stroke="none" stroke-width="1" fill="none" fill-rule="evenodd">
        <path d="M12,4 C16.418278,4 20,7.581722 20,12 C20,13.8798064 19.3516462,15.6081817 18.26636,16.9737045 L18.3823758,17.4957753 C18.5907935,18.4832335 18.7338731,19.4254355 18.7338731,19.4254355 C18.8765943,20.2526454 18.3772776,20.7169425 17.6109126,20.5125618 L17.4877431,20.4746897 L14.7368536,19.5196058 C13.8830211,19.8304436 12.9613115,20 12,20 C7.581722,20 4,16.418278 4,12 C4,7.581722 7.581722,4 12,4 Z M8.29411765,10.5882353 L8.15730554,10.594698 C7.43743242,10.6631071 6.88235294,11.2661684 6.88235294,12 C6.88235294,12.7389478 7.44224761,13.3374948 8.15815528,13.4053552 L8.29411765,13.4117647 L8.43092975,13.405302 C9.10581081,13.3411684 9.63585369,12.8071258 9.6994728,12.1359624 L9.70588235,12 L9.69941969,11.8631879 C9.63528609,11.1883068 9.10124346,10.658264 8.43008001,10.5946448 L8.29411765,10.5882353 Z M12,10.5882353 L11.8631879,10.594698 C11.1433148,10.6631071 10.5882353,11.2661684 10.5882353,12 C10.5882353,12.7389478 11.14813,13.3374948 11.8640376,13.4053552 L12,13.4117647 L12.1368121,13.405302 C12.8116932,13.3411684 13.341736,12.8071258 13.4053552,12.1359624 L13.4117647,12 L13.405302,11.8631879 C13.3411684,11.1883068 12.8071258,10.658264 12.1359624,10.5946448 L12,10.5882353 Z M15.7058824,10.5882353 L15.5690703,10.594698 C14.8491971,10.6631071 14.2941176,11.2661684 14.2941176,12 C14.2941176,12.7389478 14.8540123,13.3374948 15.56992,13.4053552 L15.7058824,13.4117647 L15.8426945,13.405302 C16.5175755,13.3411684 17.0476184,12.8071258 17.1112375,12.1359624 L17.1176471,12 L17.1111844,11.8631879 C17.0470508,11.1883068 16.5130082,10.658264 15.8418447,10.5946448 L15.7058824,10.5882353 Z" id="path" fill="#FFFFFF"></path>
    </g>
</svg>